Coordinates
version=1
nRows=12
nColumns=24
inDegrees=yes

Units are S.I. units (second, meters, Newtons, ...)
Angles are in degrees.

endheader
time	pelvis_tilt	pelvis_list	pelvis_rotation	pelvis_tx	pelvis_ty	pelvis_tz	hip_flexion_r	hip_adduction_r	hip_rotation_r	knee_angle_r	ankle_angle_r	subtalar_angle_r	mtp_angle_r	hip_flexion_l	hip_adduction_l	hip_rotation_l	knee_angle_l	ankle_angle_l	subtalar_angle_l	mtp_angle_l	lumbar_extension	lumbar_bending	lumbar_rotation
      0.62600000	      6.37886048	      3.36031342	      4.31642465	     -0.79326515	      1.01080068	      0.26482184	     14.52557222	     -4.32475569	    -12.63202153	      4.35700288	      2.94862290	     -5.62619100	     -1.41016141	    -22.45747192	      4.34010339	      0.69534235	     -4.20756207	      9.34158799	    -12.74284168	     -0.96950624	    -19.98997789	     -2.63670798	     -3.17625931
      0.63016667	      6.68425984	      3.27696578	      4.52435569	     -0.78750962	      1.01065068	      0.26456002	     14.24451837	     -4.24070553	    -12.69254138	      3.71795686	      2.88321616	     -5.91809792	    -10.55073058	    -22.99271578	      4.11020081	      0.99015187	     -4.49642408	      9.46018539	    -12.72118941	     -9.81538750	    -20.32498559	     -2.38604838	     -3.46106988
      0.63433333	      6.91182031	      3.16290654	      4.59463509	     -0.78155305	      1.01031065	      0.26465972	     14.07014795	     -4.07852077	    -12.62183056	      3.05984194	      2.67301583	     -6.35565676	    -10.47702038	    -23.40893547	      3.87610970	      0.88502870	     -4.86556501	      9.62918008	    -12.33610822	     -9.88105454	    -20.52925965	     -2.16508258	     -3.54205813
      0.63850000	      7.16534851	      3.03291092	      4.68316580	     -0.77552378	      1.01005632	      0.26470617	     13.83357161	     -3.89976616	    -12.56989980	      2.43495198	      2.42273115	     -6.73453071	    -10.38904443	    -23.86463895	      3.62350482	      0.88289997	     -5.20632766	      9.70559655	    -12.16057665	     -9.92951194	    -20.76886359	     -1.91784844	     -3.66191748
      0.64266667	      7.45295131	      2.91078326	      4.78421943	     -0.76951177	      1.00987498	      0.26476253	     13.53650470	     -3.72407426	    -12.52836940	      1.84568376	      2.08718270	     -7.08051132	    -10.28259820	    -24.32879234	      3.36668987	      0.87395734	     -5.59477080	      9.75293363	    -11.96207690	     -9.96002130	    -21.04673206	     -1.66507185	     -3.80413879
      0.64683333	      7.09292941	      2.98772624	      4.95424904	     -0.76368605	      1.00896936	      0.26476516	     14.01212842	     -3.84301868	    -12.43257366	      1.08388809	      1.77271345	     -7.36273348	    -10.16115990	    -23.98784335	      3.36250668	      1.12317156	     -6.19954864	      9.72656350	    -12.01234658	     -9.97558475	    -20.64613087	     -1.67307707	     -4.07664930
      0.65100000	      7.23272296	      2.93366168	      5.06901926	     -0.75774861	      1.00867711	      0.26490818	     13.86123527	     -3.74634629	    -12.33842523	      0.51297794	      1.31257986	     -7.72489437	    -10.02267494	    -24.22008547	      3.17893014	      1.17483833	     -6.71853795	      9.71677034	    -11.86769451	     -9.97275070	    -20.77313534	     -1.52123477	     -4.23541804
      0.65516667	      7.37989382	      2.85489399	      5.18175553	     -0.75170542	      1.00842735	      0.26507750	     13.66975018	     -3.61546899	    -12.25514682	      0.00386968	      0.76779619	     -8.09885611	     -9.88798291	    -24.44909737	      2.96546562	      1.20094162	     -7.26615289	      9.70575951	    -11.68665924	     -9.95116671	    -20.88850583	     -1.33633994	     -4.38943436
      0.65933333	      7.52210027	      2.75136543	      5.27731336	     -0.74558119	      1.00821684	      0.26531353	     13.45594724	     -3.44625003	    -12.13973934	     -0.44239316	      0.13685627	     -8.50056390	     -9.73706711	    -24.65052024	      2.72931453	      1.17042037	     -7.84953302	      9.65158534	    -11.49452700	     -9.90898521	    -20.98982944	     -1.13611007	     -4.53671030
      0.66350000	      7.65901447	      2.62464321	      5.35568646	     -0.73939327	      1.00803382	      0.26562588	     13.22432359	     -3.24076049	    -11.99280760	     -0.83118375	     -0.56123655	     -8.93888410	     -9.55896981	    -24.82220036	      2.46992910	      1.08595218	     -8.48136259	      9.58198351	    -11.25921507	     -9.84045002	    -21.07949731	     -0.91962167	     -4.66148130
      0.66766667	      7.82106853	      2.48175158	      5.33430629	     -0.73316709	      1.00788589	      0.26618975	     12.97030714	     -2.98425745	    -11.72281193	     -1.19022020	     -1.32550281	     -9.40512216	     -9.19589363	    -25.00533228	      2.21822026	      0.84271977	     -9.14009838	      9.48902135	    -10.93314221	     -9.66418718	    -21.19793251	     -0.72721495	     -4.73834330
      0.67183333	      7.92168530	      2.33426439	      5.36895591	     -0.72690022	      1.00774098	      0.26665648	     12.74704729	     -2.74097394	    -11.50109479	     -1.49163189	     -2.15243712	     -9.91776041	     -8.82997835	    -25.08236940	      1.94868962	      0.66401269	     -9.87204042	      9.35257905	    -10.66761177	     -9.44265469	    -21.23403019	     -0.51866242	     -4.80029464
